<mxfile host="65bd71144e">
    <diagram id="AbvcyODMGbLfHhGxlUP3" name="Page-1">
        <mxGraphModel dx="3198" dy="411" grid="1" gridSize="10" guides="1" tooltips="1" connect="1" arrows="1" fold="1" page="1" pageScale="1" pageWidth="2339" pageHeight="3300" math="0" shadow="0">
            <root>
                <mxCell id="0"/>
                <mxCell id="1" parent="0"/>
                <mxCell id="5" value="" style="ellipse;html=1;shape=startState;fillColor=#000000;strokeColor=#ff0000;" parent="1" vertex="1">
                    <mxGeometry x="460" y="70" width="30" height="30" as="geometry"/>
                </mxCell>
                <mxCell id="6" value="" style="html=1;verticalAlign=bottom;endArrow=open;endSize=8;strokeColor=#ff0000;entryX=0.5;entryY=0;entryDx=0;entryDy=0;" parent="1" source="5" target="7" edge="1">
                    <mxGeometry relative="1" as="geometry">
                        <mxPoint x="475" y="90" as="targetPoint"/>
                    </mxGeometry>
                </mxCell>
                <mxCell id="7" value="Dashboard&amp;nbsp;" style="rounded=1;whiteSpace=wrap;html=1;arcSize=40;fontColor=#000000;fillColor=#ffffc0;strokeColor=#ff0000;" parent="1" vertex="1">
                    <mxGeometry x="415" y="160" width="120" height="40" as="geometry"/>
                </mxCell>
                <mxCell id="8" value="" style="edgeStyle=orthogonalEdgeStyle;html=1;verticalAlign=bottom;endArrow=open;endSize=8;strokeColor=#ff0000;entryX=0.5;entryY=0;entryDx=0;entryDy=0;" parent="1" source="7" target="25" edge="1">
                    <mxGeometry relative="1" as="geometry">
                        <mxPoint x="475" y="190" as="targetPoint"/>
                    </mxGeometry>
                </mxCell>
                <mxCell id="46" value="" style="edgeStyle=elbowEdgeStyle;html=1;fontColor=#000000;strokeColor=#FF0000;elbow=vertical;exitX=0;exitY=0;exitDx=0;exitDy=0;entryX=0.379;entryY=-0.008;entryDx=0;entryDy=0;entryPerimeter=0;" parent="1" target="44" edge="1">
                    <mxGeometry relative="1" as="geometry">
                        <Array as="points">
                            <mxPoint x="370" y="320"/>
                            <mxPoint x="260" y="350"/>
                            <mxPoint x="240" y="370"/>
                        </Array>
                        <mxPoint x="395" y="320" as="sourcePoint"/>
                    </mxGeometry>
                </mxCell>
                <mxCell id="25" value="Dashboard de&#10;Configuración" style="swimlane;fontStyle=0;align=center;verticalAlign=middle;childLayout=stackLayout;horizontal=1;startSize=70;horizontalStack=0;resizeParent=0;resizeLast=1;container=0;fontColor=#000000;collapsible=0;rounded=1;arcSize=32;strokeColor=#ff0000;fillColor=#ffffc0;swimlaneFillColor=#ffffc0;dropTarget=0;" parent="1" vertex="1">
                    <mxGeometry x="395" y="280" width="160" height="110" as="geometry"/>
                </mxCell>
                <mxCell id="81" value="" style="edgeStyle=elbowEdgeStyle;html=1;fontColor=#000000;strokeColor=#FF0000;exitX=0;exitY=0.75;exitDx=0;exitDy=0;entryX=0.01;entryY=0.307;entryDx=0;entryDy=0;entryPerimeter=0;" parent="1" source="45" target="79" edge="1">
                    <mxGeometry relative="1" as="geometry">
                        <Array as="points">
                            <mxPoint x="-315" y="660"/>
                            <mxPoint x="-305" y="730"/>
                            <mxPoint x="-325" y="640"/>
                        </Array>
                    </mxGeometry>
                </mxCell>
                <mxCell id="92" value="" style="edgeStyle=elbowEdgeStyle;html=1;fontColor=#000000;strokeColor=#FF0000;exitX=0;exitY=0.25;exitDx=0;exitDy=0;" parent="1" source="45" target="89" edge="1">
                    <mxGeometry relative="1" as="geometry">
                        <Array as="points">
                            <mxPoint x="-355" y="840"/>
                            <mxPoint x="-345" y="660"/>
                        </Array>
                    </mxGeometry>
                </mxCell>
                <mxCell id="236" style="edgeStyle=elbowEdgeStyle;elbow=vertical;html=1;exitX=0.5;exitY=0;exitDx=0;exitDy=0;entryX=0;entryY=0.5;entryDx=0;entryDy=0;strokeColor=#FF0000;" parent="1" source="44" edge="1">
                    <mxGeometry relative="1" as="geometry">
                        <Array as="points">
                            <mxPoint x="340" y="355"/>
                            <mxPoint x="240" y="370"/>
                        </Array>
                        <mxPoint x="395" y="355" as="targetPoint"/>
                    </mxGeometry>
                </mxCell>
                <mxCell id="44" value="Listado de Usuarios" style="swimlane;fontStyle=0;align=center;verticalAlign=middle;childLayout=stackLayout;horizontal=1;startSize=40;horizontalStack=0;resizeParent=0;resizeLast=1;container=0;fontColor=#000000;collapsible=0;rounded=1;arcSize=32;strokeColor=#ff0000;fillColor=#ffffc0;swimlaneFillColor=#ffffc0;dropTarget=0;" parent="1" vertex="1">
                    <mxGeometry x="-275" y="460" width="160" height="180" as="geometry"/>
                </mxCell>
                <mxCell id="45" value="&lt;b&gt;entry/&lt;/b&gt; listado usuarios activos y sus acciones.&lt;br&gt;&lt;b&gt;do/&lt;/b&gt; acciones: Editar, Eliminar.&lt;br&gt;&lt;b&gt;exit/&lt;/b&gt; volver Dashboard Configuración" style="text;html=1;strokeColor=none;fillColor=none;align=left;verticalAlign=middle;spacingLeft=4;spacingRight=4;whiteSpace=wrap;overflow=hidden;rotatable=0;fontColor=#000000;" parent="44" vertex="1">
                    <mxGeometry y="40" width="160" height="140" as="geometry"/>
                </mxCell>
                <mxCell id="87" style="edgeStyle=elbowEdgeStyle;html=1;exitX=0;exitY=0.5;exitDx=0;exitDy=0;entryX=0;entryY=0.5;entryDx=0;entryDy=0;fontColor=#000000;strokeColor=#FF0000;" parent="1" source="79" target="45" edge="1">
                    <mxGeometry relative="1" as="geometry">
                        <Array as="points">
                            <mxPoint x="-335" y="670"/>
                        </Array>
                    </mxGeometry>
                </mxCell>
                <mxCell id="78" value="Editar usuario" style="swimlane;fontStyle=0;align=center;verticalAlign=middle;childLayout=stackLayout;horizontal=1;startSize=40;horizontalStack=0;resizeParent=0;resizeLast=1;container=0;fontColor=#000000;collapsible=0;rounded=1;arcSize=32;strokeColor=#ff0000;fillColor=#ffffc0;swimlaneFillColor=#ffffc0;dropTarget=0;" parent="1" vertex="1">
                    <mxGeometry x="-280" y="690" width="160" height="150" as="geometry"/>
                </mxCell>
                <mxCell id="79" value="&lt;b&gt;entry/&lt;/b&gt; mostrar formulario de usuario&lt;br&gt;&lt;b&gt;do/&lt;/b&gt; solicitar datos necesarios para completar el formulario&lt;br&gt;&lt;b&gt;exit/&lt;/b&gt; cerrar formulario" style="text;html=1;strokeColor=none;fillColor=none;align=left;verticalAlign=middle;spacingLeft=4;spacingRight=4;whiteSpace=wrap;overflow=hidden;rotatable=0;fontColor=#000000;" parent="78" vertex="1">
                    <mxGeometry y="40" width="160" height="110" as="geometry"/>
                </mxCell>
                <mxCell id="94" style="edgeStyle=elbowEdgeStyle;html=1;exitX=0;exitY=0.75;exitDx=0;exitDy=0;entryX=0;entryY=0;entryDx=0;entryDy=0;fontColor=#000000;strokeColor=#FF0000;" parent="1" source="90" target="45" edge="1">
                    <mxGeometry relative="1" as="geometry">
                        <Array as="points">
                            <mxPoint x="-375" y="700"/>
                            <mxPoint x="-335" y="820"/>
                        </Array>
                    </mxGeometry>
                </mxCell>
                <mxCell id="89" value="Nuevo usuario" style="swimlane;fontStyle=0;align=center;verticalAlign=middle;childLayout=stackLayout;horizontal=1;startSize=40;horizontalStack=0;resizeParent=0;resizeLast=1;container=0;fontColor=#000000;collapsible=0;rounded=1;arcSize=26;strokeColor=#ff0000;fillColor=#ffffc0;swimlaneFillColor=#ffffc0;dropTarget=0;" parent="1" vertex="1">
                    <mxGeometry x="-280" y="870" width="160" height="160" as="geometry"/>
                </mxCell>
                <mxCell id="90" value="&lt;b&gt;entry/&lt;/b&gt;&lt;span&gt;&amp;nbsp;mostrar formulario de usuario&lt;/span&gt;&lt;br&gt;&lt;b&gt;do/&lt;/b&gt;&lt;span&gt;&amp;nbsp;solicitar datos necesarios para completar el formulario&lt;/span&gt;&lt;br&gt;&lt;b&gt;exit/&lt;/b&gt;&lt;span&gt;&amp;nbsp;cerrar formulario&lt;/span&gt;" style="text;html=1;strokeColor=none;fillColor=none;align=left;verticalAlign=middle;spacingLeft=4;spacingRight=4;whiteSpace=wrap;overflow=hidden;rotatable=0;fontColor=#000000;" parent="89" vertex="1">
                    <mxGeometry y="40" width="160" height="120" as="geometry"/>
                </mxCell>
                <mxCell id="174" value="&lt;b&gt;entry/&lt;/b&gt;&lt;span&gt;&amp;nbsp;mostrar formulario de borrador&lt;/span&gt;&lt;br&gt;&lt;b&gt;do/&lt;/b&gt;&lt;span&gt;&amp;nbsp;solicitar datos necesarios para completar el formulario&lt;/span&gt;&lt;br&gt;&lt;b&gt;exit/&lt;/b&gt;&lt;span&gt;&amp;nbsp;cerrar formulario&lt;/span&gt;" style="text;html=1;strokeColor=none;fillColor=none;align=left;verticalAlign=middle;spacingLeft=4;spacingRight=4;whiteSpace=wrap;overflow=hidden;rotatable=0;fontColor=#000000;" parent="89" vertex="1">
                    <mxGeometry y="160" width="160" as="geometry"/>
                </mxCell>
                <mxCell id="126" value="" style="edgeStyle=elbowEdgeStyle;html=1;fontColor=#000000;strokeColor=#FF0000;exitX=0.25;exitY=1;exitDx=0;exitDy=0;elbow=vertical;" parent="1" target="130" edge="1">
                    <mxGeometry relative="1" as="geometry">
                        <mxPoint x="435" y="390" as="sourcePoint"/>
                    </mxGeometry>
                </mxCell>
                <mxCell id="127" value="" style="edgeStyle=elbowEdgeStyle;html=1;fontColor=#000000;strokeColor=#FF0000;exitX=0;exitY=0.5;exitDx=0;exitDy=0;entryX=0;entryY=0.75;entryDx=0;entryDy=0;" parent="1" source="131" target="134" edge="1">
                    <mxGeometry relative="1" as="geometry">
                        <Array as="points">
                            <mxPoint x="-15" y="750"/>
                            <mxPoint x="-25" y="750"/>
                            <mxPoint x="-15" y="750"/>
                        </Array>
                    </mxGeometry>
                </mxCell>
                <mxCell id="129" value="" style="edgeStyle=elbowEdgeStyle;html=1;fontColor=#000000;strokeColor=#FF0000;exitX=0;exitY=0;exitDx=0;exitDy=0;entryX=0;entryY=0.75;entryDx=0;entryDy=0;" parent="1" source="131" target="141" edge="1">
                    <mxGeometry relative="1" as="geometry">
                        <Array as="points">
                            <mxPoint x="-55" y="740"/>
                            <mxPoint x="-65" y="820"/>
                        </Array>
                    </mxGeometry>
                </mxCell>
                <mxCell id="130" value="Listado de Roles" style="swimlane;fontStyle=0;align=center;verticalAlign=middle;childLayout=stackLayout;horizontal=1;startSize=40;horizontalStack=0;resizeParent=0;resizeLast=1;container=0;fontColor=#000000;collapsible=0;rounded=1;arcSize=32;strokeColor=#ff0000;fillColor=#ffffc0;swimlaneFillColor=#ffffc0;dropTarget=0;" parent="1" vertex="1">
                    <mxGeometry x="40" y="460" width="160" height="180" as="geometry"/>
                </mxCell>
                <mxCell id="131" value="&lt;b&gt;entry/&lt;/b&gt; listado roles activos y sus acciones.&lt;br&gt;&lt;b&gt;do/&lt;/b&gt; acciones: Editar, Eliminar.&lt;br&gt;&lt;b&gt;exit/&lt;/b&gt; volver Dashboard Configuración" style="text;html=1;strokeColor=none;fillColor=none;align=left;verticalAlign=middle;spacingLeft=4;spacingRight=4;whiteSpace=wrap;overflow=hidden;rotatable=0;fontColor=#000000;" parent="130" vertex="1">
                    <mxGeometry y="40" width="160" height="140" as="geometry"/>
                </mxCell>
                <mxCell id="132" style="edgeStyle=elbowEdgeStyle;html=1;exitX=0;exitY=0.5;exitDx=0;exitDy=0;entryX=0;entryY=0.75;entryDx=0;entryDy=0;fontColor=#000000;strokeColor=#FF0000;" parent="1" source="134" target="131" edge="1">
                    <mxGeometry relative="1" as="geometry">
                        <Array as="points">
                            <mxPoint x="5" y="810"/>
                        </Array>
                    </mxGeometry>
                </mxCell>
                <mxCell id="133" value="Editar Rol" style="swimlane;fontStyle=0;align=center;verticalAlign=middle;childLayout=stackLayout;horizontal=1;startSize=40;horizontalStack=0;resizeParent=0;resizeLast=1;container=0;fontColor=#000000;collapsible=0;rounded=1;arcSize=32;strokeColor=#ff0000;fillColor=#ffffc0;swimlaneFillColor=#ffffc0;dropTarget=0;" parent="1" vertex="1">
                    <mxGeometry x="40" y="690" width="160" height="150" as="geometry"/>
                </mxCell>
                <mxCell id="134" value="&lt;b&gt;entry/&lt;/b&gt; mostrar formulario de roles&lt;br&gt;&lt;b&gt;do/&lt;/b&gt; solicitar datos necesarios para completar el formulario&lt;br&gt;&lt;b&gt;exit/&lt;/b&gt; cerrar formulario" style="text;html=1;strokeColor=none;fillColor=none;align=left;verticalAlign=middle;spacingLeft=4;spacingRight=4;whiteSpace=wrap;overflow=hidden;rotatable=0;fontColor=#000000;" parent="133" vertex="1">
                    <mxGeometry y="40" width="160" height="110" as="geometry"/>
                </mxCell>
                <mxCell id="139" style="edgeStyle=elbowEdgeStyle;html=1;entryX=0;entryY=0.25;entryDx=0;entryDy=0;fontColor=#000000;strokeColor=#FF0000;" parent="1" source="141" target="131" edge="1">
                    <mxGeometry relative="1" as="geometry">
                        <Array as="points">
                            <mxPoint x="-35" y="740"/>
                            <mxPoint x="-45" y="750"/>
                            <mxPoint x="-35" y="830"/>
                        </Array>
                    </mxGeometry>
                </mxCell>
                <mxCell id="140" value="Nuevo Rol" style="swimlane;fontStyle=0;align=center;verticalAlign=middle;childLayout=stackLayout;horizontal=1;startSize=40;horizontalStack=0;resizeParent=0;resizeLast=1;container=0;fontColor=#000000;collapsible=0;rounded=1;arcSize=40;strokeColor=#ff0000;fillColor=#ffffc0;swimlaneFillColor=#ffffc0;dropTarget=0;" parent="1" vertex="1">
                    <mxGeometry x="40" y="880" width="160" height="160" as="geometry"/>
                </mxCell>
                <mxCell id="141" value="&lt;b&gt;entry/&lt;/b&gt;&lt;span&gt;&amp;nbsp;mostrar formulario de roles&lt;/span&gt;&lt;br&gt;&lt;b&gt;do/&lt;/b&gt;&lt;span&gt;&amp;nbsp;solicitar datos necesarios para completar el formulario&lt;/span&gt;&lt;br&gt;&lt;b&gt;exit/&lt;/b&gt;&lt;span&gt;&amp;nbsp;cerrar formulario&lt;/span&gt;" style="text;html=1;strokeColor=none;fillColor=none;align=left;verticalAlign=middle;spacingLeft=4;spacingRight=4;whiteSpace=wrap;overflow=hidden;rotatable=0;fontColor=#000000;" parent="140" vertex="1">
                    <mxGeometry y="40" width="160" height="120" as="geometry"/>
                </mxCell>
                <mxCell id="142" value="" style="edgeStyle=elbowEdgeStyle;html=1;fontColor=#000000;strokeColor=#FF0000;exitX=0.5;exitY=1;exitDx=0;exitDy=0;elbow=vertical;entryX=0.25;entryY=0;entryDx=0;entryDy=0;" parent="1" target="146" edge="1">
                    <mxGeometry relative="1" as="geometry">
                        <mxPoint x="475" y="390" as="sourcePoint"/>
                        <Array as="points">
                            <mxPoint x="510" y="440"/>
                        </Array>
                    </mxGeometry>
                </mxCell>
                <mxCell id="143" value="" style="edgeStyle=elbowEdgeStyle;html=1;fontColor=#000000;strokeColor=#FF0000;exitX=0;exitY=0.5;exitDx=0;exitDy=0;entryX=0;entryY=0.75;entryDx=0;entryDy=0;" parent="1" source="147" target="150" edge="1">
                    <mxGeometry relative="1" as="geometry">
                        <mxPoint x="695" y="670" as="sourcePoint"/>
                        <Array as="points">
                            <mxPoint x="325" y="810"/>
                        </Array>
                    </mxGeometry>
                </mxCell>
                <mxCell id="145" value="" style="edgeStyle=elbowEdgeStyle;html=1;fontColor=#000000;strokeColor=#FF0000;exitX=0;exitY=0;exitDx=0;exitDy=0;entryX=0;entryY=0.75;entryDx=0;entryDy=0;" parent="1" source="147" target="157" edge="1">
                    <mxGeometry relative="1" as="geometry">
                        <Array as="points">
                            <mxPoint x="265" y="1160"/>
                            <mxPoint x="265" y="860"/>
                        </Array>
                    </mxGeometry>
                </mxCell>
                <mxCell id="146" value="Listado de Permisos" style="swimlane;fontStyle=0;align=center;verticalAlign=middle;childLayout=stackLayout;horizontal=1;startSize=40;horizontalStack=0;resizeParent=0;resizeLast=1;container=0;fontColor=#000000;collapsible=0;rounded=1;arcSize=32;strokeColor=#ff0000;fillColor=#ffffc0;swimlaneFillColor=#ffffc0;dropTarget=0;" parent="1" vertex="1">
                    <mxGeometry x="385" y="460" width="160" height="180" as="geometry"/>
                </mxCell>
                <mxCell id="147" value="&lt;b&gt;entry/&lt;/b&gt; listado de permisos activos y sus acciones.&lt;br&gt;&lt;b&gt;do/&lt;/b&gt; acciones: Editar,&amp;nbsp; Eliminar.&lt;br&gt;&lt;b&gt;exit/&lt;/b&gt; volver Dashboard Configuración" style="text;html=1;strokeColor=none;fillColor=none;align=left;verticalAlign=middle;spacingLeft=4;spacingRight=4;whiteSpace=wrap;overflow=hidden;rotatable=0;fontColor=#000000;" parent="146" vertex="1">
                    <mxGeometry y="40" width="160" height="140" as="geometry"/>
                </mxCell>
                <mxCell id="148" style="edgeStyle=elbowEdgeStyle;html=1;exitX=0;exitY=0.5;exitDx=0;exitDy=0;fontColor=#000000;strokeColor=#FF0000;entryX=0;entryY=0.75;entryDx=0;entryDy=0;" parent="1" source="150" target="147" edge="1">
                    <mxGeometry relative="1" as="geometry">
                        <mxPoint x="735" y="650" as="targetPoint"/>
                        <Array as="points">
                            <mxPoint x="355" y="670"/>
                        </Array>
                    </mxGeometry>
                </mxCell>
                <mxCell id="149" value="Editar Permiso" style="swimlane;fontStyle=0;align=center;verticalAlign=middle;childLayout=stackLayout;horizontal=1;startSize=40;horizontalStack=0;resizeParent=0;resizeLast=1;container=0;fontColor=#000000;collapsible=0;rounded=1;arcSize=32;strokeColor=#ff0000;fillColor=#ffffc0;swimlaneFillColor=#ffffc0;dropTarget=0;" parent="1" vertex="1">
                    <mxGeometry x="385" y="690" width="160" height="150" as="geometry"/>
                </mxCell>
                <mxCell id="150" value="&lt;b&gt;entry/&lt;/b&gt; mostrar formulario de permisos&lt;br&gt;&lt;b&gt;do/&lt;/b&gt; silicitar datos necesarios para completar el formulario&lt;br&gt;&lt;b&gt;exit/&lt;/b&gt; cerrar formulario" style="text;html=1;strokeColor=none;fillColor=none;align=left;verticalAlign=middle;spacingLeft=4;spacingRight=4;whiteSpace=wrap;overflow=hidden;rotatable=0;fontColor=#000000;" parent="149" vertex="1">
                    <mxGeometry y="40" width="160" height="110" as="geometry"/>
                </mxCell>
                <mxCell id="155" style="edgeStyle=elbowEdgeStyle;html=1;exitX=0;exitY=0.5;exitDx=0;exitDy=0;entryX=0;entryY=0.25;entryDx=0;entryDy=0;fontColor=#000000;strokeColor=#FF0000;" parent="1" source="157" target="147" edge="1">
                    <mxGeometry relative="1" as="geometry">
                        <Array as="points">
                            <mxPoint x="295" y="830"/>
                        </Array>
                    </mxGeometry>
                </mxCell>
                <mxCell id="156" value="Nuevo Permiso" style="swimlane;fontStyle=0;align=center;verticalAlign=middle;childLayout=stackLayout;horizontal=1;startSize=40;horizontalStack=0;resizeParent=0;resizeLast=1;container=0;fontColor=#000000;collapsible=0;rounded=1;arcSize=32;strokeColor=#ff0000;fillColor=#ffffc0;swimlaneFillColor=#ffffc0;dropTarget=0;" parent="1" vertex="1">
                    <mxGeometry x="385" y="870" width="160" height="160" as="geometry"/>
                </mxCell>
                <mxCell id="157" value="&lt;b&gt;entry/&lt;/b&gt;&lt;span&gt;&amp;nbsp;mostrar formulario de permisos&lt;/span&gt;&lt;br&gt;&lt;b&gt;do/&lt;/b&gt;&lt;span&gt;&amp;nbsp;solicitar datos necesarios para completar el formulario&lt;/span&gt;&lt;br&gt;&lt;b&gt;exit/&lt;/b&gt;&lt;span&gt;&amp;nbsp;cerrar formulario&lt;/span&gt;" style="text;html=1;strokeColor=none;fillColor=none;align=left;verticalAlign=middle;spacingLeft=4;spacingRight=4;whiteSpace=wrap;overflow=hidden;rotatable=0;fontColor=#000000;" parent="156" vertex="1">
                    <mxGeometry y="40" width="160" height="120" as="geometry"/>
                </mxCell>
                <mxCell id="158" value="" style="edgeStyle=elbowEdgeStyle;html=1;fontColor=#000000;strokeColor=#FF0000;elbow=vertical;exitX=1;exitY=0.75;exitDx=0;exitDy=0;" parent="1" target="162" edge="1">
                    <mxGeometry relative="1" as="geometry">
                        <mxPoint x="555" y="372.5" as="sourcePoint"/>
                        <Array as="points">
                            <mxPoint x="640" y="373"/>
                            <mxPoint x="760" y="380"/>
                            <mxPoint x="780" y="370"/>
                            <mxPoint x="710" y="400"/>
                            <mxPoint x="710" y="410"/>
                            <mxPoint x="730" y="400"/>
                            <mxPoint x="740" y="420"/>
                            <mxPoint x="750" y="370"/>
                            <mxPoint x="680" y="410"/>
                        </Array>
                    </mxGeometry>
                </mxCell>
                <mxCell id="159" value="" style="edgeStyle=elbowEdgeStyle;html=1;fontColor=#000000;strokeColor=#FF0000;exitX=0;exitY=0.75;exitDx=0;exitDy=0;entryX=0;entryY=0.5;entryDx=0;entryDy=0;" parent="1" source="163" target="166" edge="1">
                    <mxGeometry relative="1" as="geometry">
                        <mxPoint x="1030" y="630" as="sourcePoint"/>
                        <Array as="points">
                            <mxPoint x="690" y="720"/>
                            <mxPoint x="680" y="690"/>
                        </Array>
                    </mxGeometry>
                </mxCell>
                <mxCell id="161" value="" style="edgeStyle=elbowEdgeStyle;html=1;fontColor=#000000;strokeColor=#FF0000;exitX=0;exitY=0;exitDx=0;exitDy=0;entryX=0;entryY=0.75;entryDx=0;entryDy=0;" parent="1" source="163" target="173" edge="1">
                    <mxGeometry relative="1" as="geometry">
                        <Array as="points">
                            <mxPoint x="600" y="710"/>
                            <mxPoint x="610" y="700"/>
                        </Array>
                    </mxGeometry>
                </mxCell>
                <mxCell id="162" value="Listado de Categorías" style="swimlane;fontStyle=0;align=center;verticalAlign=middle;childLayout=stackLayout;horizontal=1;startSize=40;horizontalStack=0;resizeParent=0;resizeLast=1;container=0;fontColor=#000000;collapsible=0;rounded=1;arcSize=32;strokeColor=#ff0000;fillColor=#ffffc0;swimlaneFillColor=#ffffc0;dropTarget=0;" parent="1" vertex="1">
                    <mxGeometry x="710" y="460" width="160" height="180" as="geometry"/>
                </mxCell>
                <mxCell id="163" value="&lt;b&gt;entry/&lt;/b&gt; listado categorías activas y sus acciones.&amp;nbsp;&lt;br&gt;&lt;b&gt;do/&lt;/b&gt; acciones: Editar,&amp;nbsp; Eliminar.&lt;br&gt;&lt;b&gt;exit/&lt;/b&gt; volver Dashboard Configuración" style="text;html=1;strokeColor=none;fillColor=none;align=left;verticalAlign=middle;spacingLeft=4;spacingRight=4;whiteSpace=wrap;overflow=hidden;rotatable=0;fontColor=#000000;" parent="162" vertex="1">
                    <mxGeometry y="40" width="160" height="140" as="geometry"/>
                </mxCell>
                <mxCell id="164" style="edgeStyle=elbowEdgeStyle;html=1;exitX=0;exitY=0.75;exitDx=0;exitDy=0;fontColor=#000000;strokeColor=#FF0000;entryX=0;entryY=0.5;entryDx=0;entryDy=0;" parent="1" source="166" target="163" edge="1">
                    <mxGeometry relative="1" as="geometry">
                        <mxPoint x="1000" y="580" as="targetPoint"/>
                        <Array as="points">
                            <mxPoint x="660" y="710"/>
                        </Array>
                    </mxGeometry>
                </mxCell>
                <mxCell id="165" value="Editar Categoría" style="swimlane;fontStyle=0;align=center;verticalAlign=middle;childLayout=stackLayout;horizontal=1;startSize=40;horizontalStack=0;resizeParent=0;resizeLast=1;container=0;fontColor=#000000;collapsible=0;rounded=1;arcSize=32;strokeColor=#ff0000;fillColor=#ffffc0;swimlaneFillColor=#ffffc0;dropTarget=0;" parent="1" vertex="1">
                    <mxGeometry x="710" y="690" width="160" height="150" as="geometry"/>
                </mxCell>
                <mxCell id="166" value="&lt;b&gt;entry/&lt;/b&gt; mostrar formulario de categorías&lt;br&gt;&lt;b&gt;do/&lt;/b&gt; solicitar datos necesarios para completar el formulario&lt;br&gt;&lt;b&gt;exit/&lt;/b&gt; cerrar formulario" style="text;html=1;strokeColor=none;fillColor=none;align=left;verticalAlign=middle;spacingLeft=4;spacingRight=4;whiteSpace=wrap;overflow=hidden;rotatable=0;fontColor=#000000;" parent="165" vertex="1">
                    <mxGeometry y="40" width="160" height="110" as="geometry"/>
                </mxCell>
                <mxCell id="171" style="edgeStyle=elbowEdgeStyle;html=1;fontColor=#000000;strokeColor=#FF0000;entryX=0;entryY=0.25;entryDx=0;entryDy=0;" parent="1" source="173" target="163" edge="1">
                    <mxGeometry relative="1" as="geometry">
                        <mxPoint x="930" y="600" as="targetPoint"/>
                        <Array as="points">
                            <mxPoint x="630" y="710"/>
                            <mxPoint x="590" y="840"/>
                        </Array>
                    </mxGeometry>
                </mxCell>
                <mxCell id="172" value="Nueva Categoría" style="swimlane;fontStyle=0;align=center;verticalAlign=middle;childLayout=stackLayout;horizontal=1;startSize=40;horizontalStack=0;resizeParent=0;resizeLast=1;container=0;fontColor=#000000;collapsible=0;rounded=1;arcSize=32;strokeColor=#ff0000;fillColor=#ffffc0;swimlaneFillColor=#ffffc0;dropTarget=0;" parent="1" vertex="1">
                    <mxGeometry x="710" y="870" width="160" height="160" as="geometry"/>
                </mxCell>
                <mxCell id="173" value="&lt;b&gt;entry/&lt;/b&gt;&lt;span&gt;&amp;nbsp;mostrar formulario de categoría&lt;/span&gt;&lt;br&gt;&lt;b&gt;do/&lt;/b&gt;&lt;span&gt;&amp;nbsp;solicitar datos necesarios para completar el formulario&lt;/span&gt;&lt;br&gt;&lt;b&gt;exit/&lt;/b&gt;&lt;span&gt;&amp;nbsp;cerrar formulario&lt;/span&gt;" style="text;html=1;strokeColor=none;fillColor=none;align=left;verticalAlign=middle;spacingLeft=4;spacingRight=4;whiteSpace=wrap;overflow=hidden;rotatable=0;fontColor=#000000;" parent="172" vertex="1">
                    <mxGeometry y="40" width="160" height="120" as="geometry"/>
                </mxCell>
                <mxCell id="175" value="" style="edgeStyle=elbowEdgeStyle;html=1;fontColor=#000000;strokeColor=#FF0000;exitX=0;exitY=0.75;exitDx=0;exitDy=0;entryX=0;entryY=0.5;entryDx=0;entryDy=0;" parent="1" source="179" target="182" edge="1">
                    <mxGeometry relative="1" as="geometry">
                        <mxPoint x="1370" y="630" as="sourcePoint"/>
                        <Array as="points">
                            <mxPoint x="1030" y="720"/>
                            <mxPoint x="1020" y="690"/>
                        </Array>
                    </mxGeometry>
                </mxCell>
                <mxCell id="177" value="" style="edgeStyle=elbowEdgeStyle;html=1;fontColor=#000000;strokeColor=#FF0000;exitX=0;exitY=0;exitDx=0;exitDy=0;entryX=0;entryY=0.75;entryDx=0;entryDy=0;" parent="1" source="179" target="189" edge="1">
                    <mxGeometry relative="1" as="geometry">
                        <Array as="points">
                            <mxPoint x="940" y="710"/>
                            <mxPoint x="950" y="700"/>
                        </Array>
                    </mxGeometry>
                </mxCell>
                <mxCell id="178" value="Listado de Permisos &#10;a Formulario Borradores" style="swimlane;fontStyle=0;align=center;verticalAlign=middle;childLayout=stackLayout;horizontal=1;startSize=40;horizontalStack=0;resizeParent=0;resizeLast=1;container=0;fontColor=#000000;collapsible=0;rounded=1;arcSize=32;strokeColor=#ff0000;fillColor=#ffffc0;swimlaneFillColor=#ffffc0;dropTarget=0;" parent="1" vertex="1">
                    <mxGeometry x="1050" y="460" width="160" height="180" as="geometry"/>
                </mxCell>
                <mxCell id="179" value="&lt;b&gt;entry/&lt;/b&gt; listado permisos activos y sus acciones.&lt;br&gt;&lt;b&gt;do/&lt;/b&gt; acciones: Editar, Eliminar.&lt;br&gt;&lt;b&gt;exit/&lt;/b&gt; volver Dashboard Configuración" style="text;html=1;strokeColor=none;fillColor=none;align=left;verticalAlign=middle;spacingLeft=4;spacingRight=4;whiteSpace=wrap;overflow=hidden;rotatable=0;fontColor=#000000;" parent="178" vertex="1">
                    <mxGeometry y="40" width="160" height="140" as="geometry"/>
                </mxCell>
                <mxCell id="180" style="edgeStyle=elbowEdgeStyle;html=1;exitX=0;exitY=0.75;exitDx=0;exitDy=0;fontColor=#000000;strokeColor=#FF0000;entryX=0;entryY=0.5;entryDx=0;entryDy=0;" parent="1" source="182" target="179" edge="1">
                    <mxGeometry relative="1" as="geometry">
                        <mxPoint x="1340" y="580" as="targetPoint"/>
                        <Array as="points">
                            <mxPoint x="1000" y="710"/>
                        </Array>
                    </mxGeometry>
                </mxCell>
                <mxCell id="181" value="Editar Permiso" style="swimlane;fontStyle=0;align=center;verticalAlign=middle;childLayout=stackLayout;horizontal=1;startSize=40;horizontalStack=0;resizeParent=0;resizeLast=1;container=0;fontColor=#000000;collapsible=0;rounded=1;arcSize=32;strokeColor=#ff0000;fillColor=#ffffc0;swimlaneFillColor=#ffffc0;dropTarget=0;" parent="1" vertex="1">
                    <mxGeometry x="1050" y="690" width="160" height="150" as="geometry"/>
                </mxCell>
                <mxCell id="182" value="&lt;b&gt;entry/&lt;/b&gt; mostrar formulario de permisos&lt;br&gt;&lt;b&gt;do/&lt;/b&gt; solocitar datos necesarios para completar el formulario&lt;br&gt;&lt;b&gt;exit/&lt;/b&gt; cerrar formulario" style="text;html=1;strokeColor=none;fillColor=none;align=left;verticalAlign=middle;spacingLeft=4;spacingRight=4;whiteSpace=wrap;overflow=hidden;rotatable=0;fontColor=#000000;" parent="181" vertex="1">
                    <mxGeometry y="40" width="160" height="110" as="geometry"/>
                </mxCell>
                <mxCell id="187" style="edgeStyle=elbowEdgeStyle;html=1;fontColor=#000000;strokeColor=#FF0000;entryX=0;entryY=0.25;entryDx=0;entryDy=0;" parent="1" source="189" target="179" edge="1">
                    <mxGeometry relative="1" as="geometry">
                        <mxPoint x="1270" y="600" as="targetPoint"/>
                        <Array as="points">
                            <mxPoint x="970" y="710"/>
                            <mxPoint x="930" y="840"/>
                        </Array>
                    </mxGeometry>
                </mxCell>
                <mxCell id="188" value="Nuevo Permiso" style="swimlane;fontStyle=0;align=center;verticalAlign=middle;childLayout=stackLayout;horizontal=1;startSize=40;horizontalStack=0;resizeParent=0;resizeLast=1;container=0;fontColor=#000000;collapsible=0;rounded=1;arcSize=32;strokeColor=#ff0000;fillColor=#ffffc0;swimlaneFillColor=#ffffc0;dropTarget=0;" parent="1" vertex="1">
                    <mxGeometry x="1050" y="870" width="160" height="160" as="geometry"/>
                </mxCell>
                <mxCell id="189" value="&lt;b&gt;entry/&lt;/b&gt;&lt;span&gt;&amp;nbsp;mostrar formulario de permisos&lt;/span&gt;&lt;br&gt;&lt;b&gt;do/&lt;/b&gt;&lt;span&gt;&amp;nbsp;solocitar datos necesarios para completar el formulario&lt;/span&gt;&lt;br&gt;&lt;b&gt;exit/&lt;/b&gt;&lt;span&gt;&amp;nbsp;cerrar formulario&lt;/span&gt;" style="text;html=1;strokeColor=none;fillColor=none;align=left;verticalAlign=middle;spacingLeft=4;spacingRight=4;whiteSpace=wrap;overflow=hidden;rotatable=0;fontColor=#000000;" parent="188" vertex="1">
                    <mxGeometry y="40" width="160" height="120" as="geometry"/>
                </mxCell>
                <mxCell id="235" value="" style="edgeStyle=elbowEdgeStyle;html=1;fontColor=#000000;strokeColor=#FF0000;exitX=1;exitY=0.5;exitDx=0;exitDy=0;elbow=vertical;entryX=0.5;entryY=0;entryDx=0;entryDy=0;" parent="1" source="25" target="178" edge="1">
                    <mxGeometry relative="1" as="geometry">
                        <mxPoint x="640" y="340" as="sourcePoint"/>
                        <mxPoint x="1135" y="410" as="targetPoint"/>
                        <Array as="points">
                            <mxPoint x="650" y="335"/>
                            <mxPoint x="750" y="350"/>
                            <mxPoint x="865" y="370"/>
                            <mxPoint x="875" y="320"/>
                            <mxPoint x="805" y="360"/>
                        </Array>
                    </mxGeometry>
                </mxCell>
                <mxCell id="237" style="edgeStyle=elbowEdgeStyle;elbow=vertical;html=1;exitX=0.25;exitY=0;exitDx=0;exitDy=0;strokeColor=#FF0000;entryX=0;entryY=1;entryDx=0;entryDy=0;" parent="1" source="130" edge="1">
                    <mxGeometry relative="1" as="geometry">
                        <mxPoint x="30" y="470" as="sourcePoint"/>
                        <mxPoint x="395" y="390" as="targetPoint"/>
                        <Array as="points">
                            <mxPoint x="295" y="390"/>
                        </Array>
                    </mxGeometry>
                </mxCell>
                <mxCell id="238" style="edgeStyle=elbowEdgeStyle;elbow=vertical;html=1;exitX=0.75;exitY=0;exitDx=0;exitDy=0;strokeColor=#FF0000;entryX=0.75;entryY=1;entryDx=0;entryDy=0;" parent="1" source="146" edge="1">
                    <mxGeometry relative="1" as="geometry">
                        <mxPoint x="940" y="335" as="sourcePoint"/>
                        <mxPoint x="515" y="390" as="targetPoint"/>
                        <Array as="points">
                            <mxPoint x="490" y="420"/>
                            <mxPoint x="720" y="420"/>
                            <mxPoint x="1160" y="245"/>
                        </Array>
                    </mxGeometry>
                </mxCell>
                <mxCell id="239" style="edgeStyle=elbowEdgeStyle;elbow=vertical;html=1;exitX=0.25;exitY=0;exitDx=0;exitDy=0;strokeColor=#FF0000;entryX=1;entryY=1;entryDx=0;entryDy=0;" parent="1" source="162" edge="1">
                    <mxGeometry relative="1" as="geometry">
                        <mxPoint x="915" y="460" as="sourcePoint"/>
                        <mxPoint x="555" y="390" as="targetPoint"/>
                        <Array as="points">
                            <mxPoint x="790" y="410"/>
                            <mxPoint x="915" y="420"/>
                            <mxPoint x="1355" y="245"/>
                        </Array>
                    </mxGeometry>
                </mxCell>
                <mxCell id="240" style="edgeStyle=elbowEdgeStyle;elbow=vertical;html=1;exitX=0.75;exitY=0;exitDx=0;exitDy=0;strokeColor=#FF0000;entryX=1;entryY=0.5;entryDx=0;entryDy=0;" parent="1" source="162" edge="1">
                    <mxGeometry relative="1" as="geometry">
                        <mxPoint x="1075" y="330" as="sourcePoint"/>
                        <mxPoint x="555" y="355" as="targetPoint"/>
                        <Array as="points">
                            <mxPoint x="650" y="360"/>
                            <mxPoint x="870" y="370"/>
                            <mxPoint x="1075" y="290"/>
                            <mxPoint x="1515" y="115"/>
                        </Array>
                    </mxGeometry>
                </mxCell>
                <mxCell id="241" style="edgeStyle=elbowEdgeStyle;elbow=vertical;html=1;exitX=0.25;exitY=0;exitDx=0;exitDy=0;strokeColor=#FF0000;entryX=1;entryY=0.25;entryDx=0;entryDy=0;" parent="1" source="178" edge="1">
                    <mxGeometry relative="1" as="geometry">
                        <mxPoint x="1015" y="330" as="sourcePoint"/>
                        <mxPoint x="555" y="337.5" as="targetPoint"/>
                        <Array as="points">
                            <mxPoint x="650" y="340"/>
                            <mxPoint x="1130" y="360"/>
                            <mxPoint x="1015" y="290"/>
                            <mxPoint x="1455" y="115"/>
                        </Array>
                    </mxGeometry>
                </mxCell>
                <mxCell id="246" value="seleccionar item configuración&lt;br&gt;desde el menú" style="text;html=1;align=center;verticalAlign=middle;resizable=0;points=[];autosize=1;strokeColor=none;fillColor=none;" vertex="1" parent="1">
                    <mxGeometry x="455" y="220" width="180" height="30" as="geometry"/>
                </mxCell>
                <mxCell id="247" value="" style="edgeStyle=orthogonalEdgeStyle;html=1;verticalAlign=bottom;endArrow=open;endSize=8;strokeColor=#ff0000;entryX=0.25;entryY=1;entryDx=0;entryDy=0;exitX=0.25;exitY=0;exitDx=0;exitDy=0;" edge="1" parent="1" source="25" target="7">
                    <mxGeometry relative="1" as="geometry">
                        <mxPoint x="485" y="220" as="targetPoint"/>
                        <mxPoint x="445" y="180" as="sourcePoint"/>
                        <Array as="points">
                            <mxPoint x="445" y="280"/>
                        </Array>
                    </mxGeometry>
                </mxCell>
            </root>
        </mxGraphModel>
    </diagram>
</mxfile>